<svg id="Layer_1" height="512" viewBox="0 0 512 512" width="512" xmlns="http://www.w3.org/2000/svg"><path d="m476.57 389.98c-11.56-11.56-26.94-17.93-43.3-17.93s-31.73 6.37-43.3 17.93c-8.56 8.56-14.26 19.21-16.65 30.79h-250.27c-17.54 0-31.82-14.27-31.82-31.82s14.27-31.82 31.82-31.82h265.9c31.33 0 56.82-25.49 56.82-56.82s-25.49-56.82-56.82-56.82h-265.9c-17.54 0-31.82-14.27-31.82-31.82s14.27-31.82 31.82-31.82h265.9c31.33 0 56.82-25.49 56.82-56.82s-25.49-56.82-56.82-56.82h-250.27c-2.39-11.59-8.1-22.24-16.65-30.8-11.56-11.56-26.94-17.93-43.3-17.93s-31.73 6.37-43.3 17.93c-11.56 11.57-17.93 26.94-17.93 43.3s6.37 31.73 17.93 43.29 26.94 17.93 43.3 17.93 31.73-6.37 43.3-17.93c8.56-8.56 14.26-19.21 16.65-30.79h250.27c17.54 0 31.82 14.27 31.82 31.82s-14.27 31.82-31.82 31.82h-265.9c-31.33 0-56.82 25.49-56.82 56.82s25.49 56.82 56.82 56.82h265.9c17.54 0 31.82 14.27 31.82 31.82s-14.27 31.82-31.82 31.82h-265.9c-31.33 0-56.82 25.49-56.82 56.82s25.49 56.82 56.82 56.82h250.27c2.39 11.59 8.1 22.24 16.65 30.8 11.56 11.56 26.94 17.93 43.3 17.93s31.73-6.37 43.3-17.93c11.56-11.57 17.93-26.94 17.93-43.3s-6.37-31.73-17.93-43.29zm-372.22-285.63c-6.84 6.84-15.94 10.61-25.62 10.61s-18.78-3.77-25.62-10.61-10.61-15.94-10.61-25.62 3.77-18.78 10.61-25.62 15.94-10.61 25.62-10.61 18.77 3.77 25.62 10.61 10.61 15.94 10.61 25.62-3.77 18.77-10.61 25.62zm354.54 354.54c-6.84 6.84-15.94 10.61-25.62 10.61s-18.77-3.77-25.62-10.61-10.61-15.94-10.61-25.62 3.77-18.77 10.61-25.62 15.94-10.61 25.62-10.61 18.78 3.77 25.62 10.61 10.61 15.94 10.61 25.62-3.77 18.78-10.61 25.62z" fill="rgb(0,0,0)"/></svg>