<svg id="Layer_1" height="512" viewBox="0 0 100 100" width="512" xmlns="http://www.w3.org/2000/svg"><g><path d="m50 1c-27.019 0-49 21.981-49 49 0 2.209 1.791 4 4 4s4-1.791 4-4c0-22.607 18.393-41 41-41s41 18.393 41 41-18.393 41-41 41c-2.209 0-4 1.791-4 4s1.791 4 4 4c27.019 0 49-21.981 49-49s-21.981-49-49-49z"/><path d="m50 29.667c-2.209 0-4 1.791-4 4v16.333c0 1.061.422 2.078 1.172 2.829l19.167 19.167c.78.781 1.805 1.171 2.828 1.171s2.048-.391 2.828-1.171c1.563-1.563 1.563-4.095 0-5.657l-17.995-17.996v-14.676c0-2.209-1.791-4-4-4z"/><path d="m36.667 91h-31.667c-2.209 0-4 1.791-4 4s1.791 4 4 4h31.667c2.209 0 4-1.791 4-4s-1.791-4-4-4z"/><path d="m26.667 76h-21.667c-2.209 0-4 1.791-4 4s1.791 4 4 4h21.667c2.209 0 4-1.791 4-4s-1.791-4-4-4z"/><path d="m16.667 61h-11.667c-2.209 0-4 1.791-4 4s1.791 4 4 4h11.667c2.209 0 4-1.791 4-4s-1.791-4-4-4z"/></g></svg>