<svg id="Capa_1" enable-background="new 0 0 512 512" height="512" viewBox="0 0 512 512" width="512" xmlns="http://www.w3.org/2000/svg"><g><circle cx="256" cy="256" fill="#fed843" r="256"/><path d="m512 256c0-140.61-115.39-256-256-256v512c140.61 0 256-115.39 256-256z" fill="#fabe2c"/><circle cx="256" cy="256" fill="#fabe2c" r="181.802"/><path d="m437.802 256c0-100.239-81.563-181.802-181.802-181.802v363.604c100.239 0 181.802-81.563 181.802-181.802z" fill="#ff9100"/><path d="m286 241h-15v-30h15c8.276 0 15 6.724 15 15 0 8.291 6.709 15 15 15s15-6.709 15-15c0-24.814-20.186-45-45-45h-15v-15c0-8.291-6.709-15-15-15s-15 6.709-15 15v15h-15c-24.814 0-45 20.186-45 45s20.186 45 45 45h15v30h-15c-8.276 0-15-6.724-15-15 0-8.291-6.709-15-15-15s-15 6.709-15 15c0 24.814 20.186 45 45 45h15v15c0 8.291 6.709 15 15 15s15-6.709 15-15v-15h15c24.814 0 45-20.186 45-45s-20.186-45-45-45zm-45 0h-15c-8.276 0-15-6.724-15-15s6.724-15 15-15h15zm45 60h-15v-30h15c8.276 0 15 6.724 15 15s-6.724 15-15 15z" fill="#fed843"/><path d="m271 346v-15h15c24.814 0 45-20.186 45-45s-20.186-45-45-45h-15v-30h15c8.276 0 15 6.724 15 15 0 8.291 6.709 15 15 15s15-6.709 15-15c0-24.814-20.186-45-45-45h-15v-15c0-8.291-6.709-15-15-15v210c8.291 0 15-6.709 15-15zm0-75h15c8.276 0 15 6.724 15 15s-6.724 15-15 15h-15z" fill="#fabe2c"/></g></svg>