<?xml version="1.0" encoding="iso-8859-1"?>
<!-- Generator: Adobe Illustrator 19.0.0, SVG Export Plug-In . SVG Version: 6.00 Build 0)  -->
<svg version="1.1" id="Capa_1" xmlns="http://www.w3.org/2000/svg" xmlns:xlink="http://www.w3.org/1999/xlink" x="0px" y="0px"
	 viewBox="0 0 512 512" style="enable-background:new 0 0 512 512;" xml:space="preserve">
<g>
	<g>
		<path d="M208,160c-8.8,0-16-7.168-16-16c0-8.832,7.2-16,16-16h32c8.832,0,16-7.168,16-16c0-8.832-7.168-16-16-16h-16V80
			c0-8.832-7.168-16-16-16c-8.832,0-16,7.168-16,16v18.944c-18.592,6.624-32,24.224-32,45.056c0,26.464,21.536,48,48,48
			c8.8,0,16,7.168,16,16c0,8.832-7.2,16-16,16h-32c-8.832,0-16,7.168-16,16c0,8.832,7.168,16,16,16h16v16c0,8.832,7.168,16,16,16
			c8.832,0,16-7.168,16-16v-18.944c18.592-6.624,32-24.224,32-45.056C256,181.536,234.464,160,208,160z"/>
	</g>
</g>
<g>
	<g>
		<path d="M384,0H32C14.048,0,0,14.048,0,32v288c0,17.952,14.048,32,32,32h32v64c0,6.464,3.904,12.32,9.888,14.784
			C75.84,431.616,77.952,432,80,432c4.16,0,8.256-1.632,11.328-4.672L166.624,352H384c17.952,0,32-14.048,32-32V32
			C416,14.048,401.952,0,384,0z M384,320H160c-4.256,0-8.32,1.696-11.328,4.672L96,377.376V336c0-8.832-7.168-16-16-16H32V32h352
			V320z"/>
	</g>
</g>
<g>
	<g>
		<path d="M480,160h-32c-8.832,0-16,7.168-16,16c0,8.832,7.168,16,16,16h32v224h-48c-8.832,0-16,7.168-16,16v25.376l-36.672-36.672
			C376.32,417.696,372.256,416,368,416H160c0-8.832-7.168-16-16-16c-8.832,0-16,7.168-16,16c0,17.952,14.048,32,32,32h201.376
			l59.328,59.328c3.04,3.04,7.136,4.672,11.296,4.672c2.048,0,4.16-0.384,6.112-1.216C444.096,508.32,448,502.464,448,496v-48h32
			c17.952,0,32-14.048,32-32V192C512,174.048,497.952,160,480,160z"/>
	</g>
</g>
<g>
</g>
<g>
</g>
<g>
</g>
<g>
</g>
<g>
</g>
<g>
</g>
<g>
</g>
<g>
</g>
<g>
</g>
<g>
</g>
<g>
</g>
<g>
</g>
<g>
</g>
<g>
</g>
<g>
</g>
</svg>
