<?xml version="1.0" encoding="UTF-8" standalone="no"?>
<!-- Created with Inkscape (http://www.inkscape.org/) -->

<svg
   version="1.1"
   id="svg2628"
   xml:space="preserve"
   width="682.66669"
   height="682.66669"
   viewBox="0 0 682.66669 682.66669"
   xmlns="http://www.w3.org/2000/svg"
   xmlns:svg="http://www.w3.org/2000/svg"><defs
     id="defs2632"><clipPath
       clipPathUnits="userSpaceOnUse"
       id="clipPath2642"><path
         d="M 0,512 H 512 V 0 H 0 Z"
         id="path2640" /></clipPath></defs><g
     id="g2634"
     transform="matrix(1.3333333,0,0,-1.3333333,0,682.66667)"><g
       id="g2636"><g
         id="g2638"
         clip-path="url(#clipPath2642)"><g
           id="g2644"
           transform="translate(344.123,435.8896)"><path
             d="m 0,0 75.055,20.111 82.822,-309.096 -309.097,-82.823 -82.822,309.097 176.99,47.424"
             style="fill:none;stroke:#000000;stroke-width:20;stroke-linecap:round;stroke-linejoin:round;stroke-miterlimit:22.926;stroke-dasharray:none;stroke-opacity:1"
             id="path2646" /></g><g
           id="g2648"
           transform="translate(187.5371,81.252)"><path
             d="M 0,0 -177.539,47.572 -94.717,356.668 34.21,322.122 M 146.322,19.852 131.558,-35.25 35.001,-9.378"
             style="fill:none;stroke:#000000;stroke-width:20;stroke-linecap:round;stroke-linejoin:round;stroke-miterlimit:22.926;stroke-dasharray:none;stroke-opacity:1"
             id="path2650" /></g><g
           id="g2652"
           transform="translate(313.6865,406.001)"><path
             d="M 0,0 C 16.523,0 30,13.477 30,30 30,46.523 16.523,60 0,60 -16.523,60 -30,46.523 -30,30 -30,13.477 -16.523,0 0,0 Z"
             style="fill:none;stroke:#000000;stroke-width:20;stroke-linecap:round;stroke-linejoin:round;stroke-miterlimit:22.926;stroke-dasharray:none;stroke-opacity:1"
             id="path2654" /></g><g
           id="g2656"
           transform="translate(277.5869,373.4746)"><path
             d="M 0,0 21.098,36.542"
             style="fill:none;stroke:#000000;stroke-width:20;stroke-linecap:round;stroke-linejoin:round;stroke-miterlimit:22.926;stroke-dasharray:none;stroke-opacity:1"
             id="path2658" /></g><g
           id="g2660"
           transform="translate(197.1562,280.041)"><path
             d="M 0,0 193.181,51.763"
             style="fill:none;stroke:#000000;stroke-width:20;stroke-linecap:round;stroke-linejoin:round;stroke-miterlimit:22.926;stroke-dasharray:none;stroke-opacity:1"
             id="path2662" /></g><g
           id="g2664"
           transform="translate(208.8027,236.5752)"><path
             d="M 0,0 193.182,51.763"
             style="fill:none;stroke:#000000;stroke-width:20;stroke-linecap:round;stroke-linejoin:round;stroke-miterlimit:22.926;stroke-dasharray:none;stroke-opacity:1"
             id="path2666" /></g><g
           id="g2668"
           transform="translate(220.4502,193.1094)"><path
             d="M 0,0 193.181,51.762"
             style="fill:none;stroke:#000000;stroke-width:20;stroke-linecap:round;stroke-linejoin:round;stroke-miterlimit:22.926;stroke-dasharray:none;stroke-opacity:1"
             id="path2670" /></g><g
           id="g2672"
           transform="translate(232.0967,149.6426)"><path
             d="M 0,0 96.59,25.881"
             style="fill:none;stroke:#000000;stroke-width:20;stroke-linecap:round;stroke-linejoin:round;stroke-miterlimit:22.926;stroke-dasharray:none;stroke-opacity:1"
             id="path2674" /></g></g></g></g></svg>
