<svg id="Layer_1" enable-background="new 0 0 512 512" viewBox="0 0 512 512" xmlns="http://www.w3.org/2000/svg"><g id="Layer_2_00000168801946694330446650000011617826496473591692_"><g id="Layer_2_copy_15"><g id="_97"><path d="m334.4 391c0 15.4-12.6 28-28 28h-216.5c-15.4 0-28-12.6-28-28v-333c0-15.4 12.6-28 28-28h216.5c15.4 0 28 12.6 28 28v170c10.6-8.5 20.6-17.6 30-27.3v-50.3c-10.7-13-11.9-27.7-3.5-43.7 1.2-2.2 2.3-4.4 3.5-6.5v-42.2c0-32-26-58-58-58h-216.5c-32 0-58 26-58 58v396c0 32 26 58 58 58h216.5c32 0 58-26 58-58v-137.8c-9.7 6.4-19.7 12.3-30 17.5zm-113 91h-46.5c-9.2-.2-16.4-7.8-16.2-17 .2-8.8 7.3-16 16.2-16.2h46.5c9.2-.2 16.8 7 17 16.2s-7 16.8-16.2 17c-.3 0-.6 0-.8 0z"/><path d="m445.5 62.8c-14.4-11.1-28.5-9.2-40.4 4.5-12.2 14.1-22.2 29.8-30.9 46.3-6.1 11.7-5 20.7 4.4 30 7.3 7.3 15.5 13.7 23.3 20.5 5.5 4.8 6 7.8 1.6 13.7-31.7 42.7-73.1 77.3-120.7 101-7.7 3.9-10.4 2.5-14.1-5.5-3.9-8.3-7.9-16.8-13.2-24.2-7.6-10.6-16.9-14.6-30.8-10.4-17.1 5.2-33.9 11.3-49.4 20.5-3.5 2.1-6.9 4.5-10 7.2-8 7-10.4 15.9-7.5 26.1 3.7 13 11.5 23.4 21.4 32.4 8.7 7.9 19.1 13.8 30.4 17.2 18.8 5.7 37.7 4.6 56.6.4 48.7-10.9 90.2-35.2 127.4-67.6 29.1-25.4 53.3-54.7 70.6-89.4 8.2-16.5 15.5-33.4 15.9-52.3.5-29.2-11.6-52.7-34.6-70.4z"/></g></g></g></svg>