<?xml version="1.0" encoding="UTF-8" standalone="no"?>
<!-- Created with Inkscape (http://www.inkscape.org/) -->

<svg
   version="1.1"
   id="svg690"
   xml:space="preserve"
   width="682.66669"
   height="682.66669"
   viewBox="0 0 682.66669 682.66669"
   xmlns="http://www.w3.org/2000/svg"
   xmlns:svg="http://www.w3.org/2000/svg"><defs
     id="defs694"><clipPath
       clipPathUnits="userSpaceOnUse"
       id="clipPath704"><path
         d="M 0,512 H 512 V 0 H 0 Z"
         id="path702" /></clipPath></defs><g
     id="g696"
     transform="matrix(1.3333333,0,0,-1.3333333,0,682.66667)"><g
       id="g698"><g
         id="g700"
         clip-path="url(#clipPath704)"><g
           id="g706"
           transform="translate(308.9754,151.9459)"><path
             d="m 0,0 8.62,8.62 c 11.692,11.692 30.649,11.692 42.341,0 l 47.031,-47.031 c 11.692,-11.692 11.692,-30.648 0,-42.34 L 74.476,-104.267 C -63.907,-242.65 -399.36,92.803 -260.977,231.186 l 23.538,23.538 c 11.683,11.683 30.623,11.693 42.318,0.022 l 47.081,-46.982 c 11.712,-11.689 11.722,-30.662 0.022,-42.363 l -8.692,-8.691 C -220.741,92.678 -64.031,-64.031 0,0 Z"
             style="fill:none;stroke:#000000;stroke-width:30;stroke-linecap:butt;stroke-linejoin:miter;stroke-miterlimit:10;stroke-dasharray:none;stroke-opacity:1"
             id="path708" /></g><g
           id="g710"
           transform="translate(130.8939,389.7129)"><path
             d="m 0,0 c 31.563,63.68 97.227,107.458 173.115,107.458 106.645,0 193.098,-86.453 193.098,-193.098 0,-75.919 -43.813,-141.605 -107.534,-173.153"
             style="fill:none;stroke:#000000;stroke-width:30;stroke-linecap:butt;stroke-linejoin:miter;stroke-miterlimit:10;stroke-dasharray:none;stroke-opacity:1"
             id="path712" /></g><g
           id="g714"
           transform="translate(304.0093,497.1704)"><path
             d="M 0,0 V -55.171"
             style="fill:none;stroke:#000000;stroke-width:30;stroke-linecap:butt;stroke-linejoin:miter;stroke-miterlimit:10;stroke-dasharray:none;stroke-opacity:1"
             id="path716" /></g><g
           id="g718"
           transform="translate(497.1066,304.0731)"><path
             d="M 0,0 H -55.171"
             style="fill:none;stroke:#000000;stroke-width:30;stroke-linecap:butt;stroke-linejoin:miter;stroke-miterlimit:10;stroke-dasharray:none;stroke-opacity:1"
             id="path720" /></g><g
           id="g722"
           transform="translate(286.75,302.2173)"><path
             d="m 0,0 c 6.127,8.115 9.106,16.289 9.106,24.989 0,9.206 -2.559,16.786 -7.604,22.528 -6.13,6.981 -14.789,10.521 -25.734,10.521 -9.012,0 -16.865,-3.023 -23.388,-9.031 C -54,42.972 -57.49,35.474 -57.995,26.723 l -0.253,-4.379 21.837,-4.16 0.53,5.453 c 0.78,8.036 5.135,12.834 11.649,12.834 5.136,0 7.191,-1.77 8.259,-3.062 1.805,-2.229 2.645,-4.905 2.645,-8.42 0,-4.75 -1.073,-8.377 -7.182,-16.153 l -39.662,-50.803 v -12.359 h 71.158 v 21.566 h -36.31 z"
             style="fill:#000000;fill-opacity:1;fill-rule:nonzero;stroke:none"
             id="path724" /></g><g
           id="g726"
           transform="translate(332.4932,291)"><path
             d="M 0,0 13.935,24.865 V 0 Z M 36.369,0 V 68.098 H 14.882 l -44.899,-78.272 v -11.392 h 43.952 v -21.542 h 22.434 v 21.542 H 48.947 V 0 Z"
             style="fill:#000000;fill-opacity:1;fill-rule:nonzero;stroke:none"
             id="path728" /></g></g></g></g></svg>
