<svg clip-rule="evenodd" fill-rule="evenodd" height="512" stroke-linejoin="round" stroke-miterlimit="2" viewBox="0 0 48 48" width="512" xmlns="http://www.w3.org/2000/svg"><g transform="translate(-432 -144)"><g id="Icon"><path d="m439.293 173.292c-1.115-.532-2.491-.337-3.414.587 0 0-2 2-2 2-1.172 1.171-1.172 3.071 0 4.242 0 0 10 10 10 10 1.171 1.172 3.071 1.172 4.242 0 0 0 2-2 2-2 .924-.923 1.119-2.299.587-3.414l1.413-1.414c.188-.188.442-.293.707-.293h9.515c1.326 0 2.598-.527 3.536-1.464 2.555-2.556 8.653-8.653 11.828-11.829 1.495-1.495 1.495-3.919 0-5.414-.718-.718-1.692-1.122-2.707-1.122s-1.989.404-2.707 1.122l-7.344 7.344c.034-.21.051-.422.051-.637 0-2.209-1.791-4-4-4h-13.343c-1.326 0-2.598.527-3.536 1.464zm6 15.415-10-10c-.391-.39-.391-1.024 0-1.414 0 0 2-2 2-2 .39-.391 1.024-.391 1.414 0 0 0 10 10 10 10 .391.39.391 1.024 0 1.414 0 0-2 2-2 2-.39.391-1.024.391-1.414 0zm4.121-5.535 1.293-1.293c.563-.563 1.326-.879 2.121-.879h9.515c.796 0 1.559-.316 2.121-.879 2.556-2.555 8.653-8.653 11.829-11.828.714-.714.714-1.872 0-2.586-.343-.343-.808-.536-1.293-.536s-.95.193-1.293.536c-2.288 2.289-5.961 5.961-7.828 7.829-.938.937-2.21 1.464-3.536 1.464h-8.343c-.552 0-1-.448-1-1s.448-1 1-1h7c.53 0 1.039-.211 1.414-.586s.586-.884.586-1.414c0-1.105-.895-2-2-2h-13.343c-.796 0-1.559.316-2.121.879l-4.708 4.707z"/><path d="m458.6 153.664c-3.285 1.342-5.6 4.569-5.6 8.336 0 1.657 1.343 3 3 3h12c1.657 0 3-1.343 3-3 0-3.767-2.315-6.994-5.6-8.336.984-.913 1.6-2.217 1.6-3.664 0-2.76-2.24-5-5-5s-5 2.24-5 5c0 1.447.616 2.751 1.6 3.664zm3.4 1.336c-3.866 0-7 3.134-7 7 0 .552.448 1 1 1h12c.552 0 1-.448 1-1 0-3.866-3.134-7-7-7zm0-2c-1.656 0-3-1.344-3-3s1.344-3 3-3 3 1.344 3 3-1.344 3-3 3z"/></g></g></svg>