<?xml version="1.0" encoding="UTF-8" standalone="no"?>
<!-- Created with Inkscape (http://www.inkscape.org/) -->

<svg
   version="1.1"
   id="svg2532"
   xml:space="preserve"
   width="682.66669"
   height="682.66669"
   viewBox="0 0 682.66669 682.66669"
   xmlns="http://www.w3.org/2000/svg"
   xmlns:svg="http://www.w3.org/2000/svg"><defs
     id="defs2536"><clipPath
       clipPathUnits="userSpaceOnUse"
       id="clipPath2546"><path
         d="M 0,512 H 512 V 0 H 0 Z"
         id="path2544" /></clipPath></defs><g
     id="g2538"
     transform="matrix(1.3333333,0,0,-1.3333333,0,682.66667)"><g
       id="g2540"><g
         id="g2542"
         clip-path="url(#clipPath2546)"><g
           id="g2548"
           transform="translate(376,166)"><path
             d="M 0,0 C 0,-33.137 -26.863,-60 -60,-60"
             style="fill:none;stroke:#000000;stroke-width:30;stroke-linecap:round;stroke-linejoin:round;stroke-miterlimit:10;stroke-dasharray:none;stroke-opacity:1"
             id="path2550" /></g><g
           id="g2552"
           transform="translate(376,166)"><path
             d="M 0,0 C 0,-33.137 26.863,-60 60,-60"
             style="fill:none;stroke:#000000;stroke-width:30;stroke-linecap:round;stroke-linejoin:round;stroke-miterlimit:10;stroke-dasharray:none;stroke-opacity:1"
             id="path2554" /></g><g
           id="g2556"
           transform="translate(376,46)"><path
             d="M 0,0 C 0,33.137 -26.863,60 -60,60"
             style="fill:none;stroke:#000000;stroke-width:30;stroke-linecap:round;stroke-linejoin:round;stroke-miterlimit:10;stroke-dasharray:none;stroke-opacity:1"
             id="path2558" /></g><g
           id="g2560"
           transform="translate(376,46)"><path
             d="M 0,0 C 0,33.137 26.863,60 60,60"
             style="fill:none;stroke:#000000;stroke-width:30;stroke-linecap:round;stroke-linejoin:round;stroke-miterlimit:10;stroke-dasharray:none;stroke-opacity:1"
             id="path2562" /></g><g
           id="g2564"
           transform="translate(136,256)"><path
             d="M 0,0 C 0,-66.274 -54.726,-120 -121,-120"
             style="fill:none;stroke:#000000;stroke-width:30;stroke-linecap:round;stroke-linejoin:round;stroke-miterlimit:10;stroke-dasharray:none;stroke-opacity:1"
             id="path2566" /></g><g
           id="g2568"
           transform="translate(136,256)"><path
             d="M 0,0 C 0,-66.274 53.726,-120 120,-120"
             style="fill:none;stroke:#000000;stroke-width:30;stroke-linecap:round;stroke-linejoin:round;stroke-miterlimit:10;stroke-dasharray:none;stroke-opacity:1"
             id="path2570" /></g><g
           id="g2572"
           transform="translate(136,15)"><path
             d="M 0,0 C 0,66.274 -54.726,121 -121,121"
             style="fill:none;stroke:#000000;stroke-width:30;stroke-linecap:round;stroke-linejoin:round;stroke-miterlimit:10;stroke-dasharray:none;stroke-opacity:1"
             id="path2574" /></g><g
           id="g2576"
           transform="translate(136,15)"><path
             d="M 0,0 C 0,66.274 53.726,121 120,121"
             style="fill:none;stroke:#000000;stroke-width:30;stroke-linecap:round;stroke-linejoin:round;stroke-miterlimit:10;stroke-dasharray:none;stroke-opacity:1"
             id="path2578" /></g><g
           id="g2580"
           transform="translate(376,497)"><path
             d="M 0,0 C 0,-66.274 -53.726,-121 -120,-121"
             style="fill:none;stroke:#000000;stroke-width:30;stroke-linecap:round;stroke-linejoin:round;stroke-miterlimit:10;stroke-dasharray:none;stroke-opacity:1"
             id="path2582" /></g><g
           id="g2584"
           transform="translate(376,497)"><path
             d="M 0,0 C 0,-66.274 54.726,-121 121,-121"
             style="fill:none;stroke:#000000;stroke-width:30;stroke-linecap:round;stroke-linejoin:round;stroke-miterlimit:10;stroke-dasharray:none;stroke-opacity:1"
             id="path2586" /></g><g
           id="g2588"
           transform="translate(376,256)"><path
             d="M 0,0 C 0,66.274 -53.726,120 -120,120"
             style="fill:none;stroke:#000000;stroke-width:30;stroke-linecap:round;stroke-linejoin:round;stroke-miterlimit:10;stroke-dasharray:none;stroke-opacity:1"
             id="path2590" /></g><g
           id="g2592"
           transform="translate(376,256)"><path
             d="M 0,0 C 0,66.274 54.726,120 121,120"
             style="fill:none;stroke:#000000;stroke-width:30;stroke-linecap:round;stroke-linejoin:round;stroke-miterlimit:10;stroke-dasharray:none;stroke-opacity:1"
             id="path2594" /></g><g
           id="g2596"
           transform="translate(136,466)"><path
             d="M 0,0 C 0,-33.137 -26.863,-60 -60,-60"
             style="fill:none;stroke:#000000;stroke-width:30;stroke-linecap:round;stroke-linejoin:round;stroke-miterlimit:10;stroke-dasharray:none;stroke-opacity:1"
             id="path2598" /></g><g
           id="g2600"
           transform="translate(136,466)"><path
             d="M 0,0 C 0,-33.137 26.863,-60 60,-60"
             style="fill:none;stroke:#000000;stroke-width:30;stroke-linecap:round;stroke-linejoin:round;stroke-miterlimit:10;stroke-dasharray:none;stroke-opacity:1"
             id="path2602" /></g><g
           id="g2604"
           transform="translate(136,346)"><path
             d="M 0,0 C 0,33.137 -26.863,60 -60,60"
             style="fill:none;stroke:#000000;stroke-width:30;stroke-linecap:round;stroke-linejoin:round;stroke-miterlimit:10;stroke-dasharray:none;stroke-opacity:1"
             id="path2606" /></g><g
           id="g2608"
           transform="translate(136,346)"><path
             d="M 0,0 C 0,33.137 26.863,60 60,60"
             style="fill:none;stroke:#000000;stroke-width:30;stroke-linecap:round;stroke-linejoin:round;stroke-miterlimit:10;stroke-dasharray:none;stroke-opacity:1"
             id="path2610" /></g></g></g></g></svg>
