<svg id="Layer_1" enable-background="new 0 0 512 512" height="512" viewBox="0 0 512 512" width="512" xmlns="http://www.w3.org/2000/svg"><path clip-rule="evenodd" d="m102.119 192.421 260.359-150.318c9.078-5.241 20.793-2.102 26.034 6.976l6.613 11.455-228.435 131.887zm-75.06 16h381.478c10.482 0 19.058 8.576 19.058 19.058v225.898c0 10.482-8.576 19.058-19.058 19.058h-381.478c-10.483.001-19.059-8.576-19.059-19.058v-225.898c0-10.482 8.576-19.058 19.059-19.058zm218.081 53.409h138.608c4.418 0 8-3.582 8-8s-3.582-8-8-8h-138.608c-4.418 0-8 3.582-8 8s3.582 8 8 8zm60.614 28.125h77.993c4.418 0 8-3.582 8-8s-3.582-8-8-8h-77.993c-4.418 0-8 3.582-8 8s3.582 8 8 8zm-241.164-19.575c-3.51 0-6.381 2.871-6.381 6.381v38.29c0 3.51 2.871 6.381 6.381 6.381h53.712c3.51 0 6.381-2.871 6.381-6.381v-38.29c0-3.51-2.872-6.381-6.381-6.381zm3.048 123.994c-5.193 0-9.429 4.236-9.429 9.429v10.373c0 5.193 4.236 9.429 9.429 9.429h38.659c5.193 0 9.429-4.236 9.429-9.429v-10.373c0-5.193-4.236-9.429-9.429-9.429zm268.022 0c-5.193 0-9.429 4.236-9.429 9.429v10.373c0 5.193 4.236 9.429 9.429 9.429h38.659c5.193 0 9.429-4.236 9.429-9.429v-10.373c0-5.193-4.236-9.429-9.429-9.429zm-89.341 0c-5.193 0-9.429 4.236-9.429 9.429v10.373c0 5.193 4.236 9.429 9.429 9.429h38.659c5.193 0 9.429-4.236 9.429-9.429v-10.373c0-5.193-4.236-9.429-9.429-9.429zm-89.34 0c-5.193 0-9.429 4.236-9.429 9.429v10.373c0 5.193 4.236 9.429 9.429 9.429h38.659c5.193 0 9.429-4.236 9.429-9.429v-10.373c0-5.193-4.236-9.429-9.429-9.429zm246.147-319.984-204.436 118.031h84.863l140.788-81.284zm29.215 50.603-116.788 67.428h92.984c19.313 0 35.058 15.745 35.058 35.058v72.649l50.89-29.382c9.078-5.241 12.217-16.956 6.976-26.034z" fill-rule="evenodd"/></svg>