<svg id="Layer_1" height="512" viewBox="0 0 36 36" width="512" xmlns="http://www.w3.org/2000/svg" data-name="Layer 1"><g fill-rule="evenodd"><path d="m31.71 7.26v3.43h-2.42a14.87 14.87 0 0 1 -7.65-2.11l-3.06-1.85a1.14 1.14 0 0 0 -1.18 0l-3.05 1.84a14.9 14.9 0 0 1 -7.65 2.11h-2.41v-3.42a1.15 1.15 0 0 1 1.14-1.15h1.28a15.92 15.92 0 0 0 8.23-2.29l3.06-1.82 3.05 1.83a16 16 0 0 0 8.23 2.29h1.29a1.16 1.16 0 0 1 1.14 1.14z" fill="#072a30"/><path d="m29.29 13a17.13 17.13 0 0 1 -8.82-2.45l-2.47-1.5-2.47 1.47a17.16 17.16 0 0 1 -8.82 2.48h-2.42v3a18.29 18.29 0 0 0 10.54 16.53l3.17 1.47 3.15-1.47a18.28 18.28 0 0 0 10.56-16.53v-3zm-10.71 10a1.14 1.14 0 0 1 -1.58 0l-3.2-3.2 1.61-1.61 2.4 2.39 4-4 1.61 1.61z" fill="#43d685"/></g></svg>