<svg fill="none" height="24" viewBox="0 0 24 24" width="24" xmlns="http://www.w3.org/2000/svg"><g clip-rule="evenodd" fill="rgb(0,0,0)" fill-rule="evenodd"><path d="m16.5 14.2501h-9v1.5h9zm-3.5-5.00004h-5.5v1.50004h5.5z"/><path d="m11.2105 2.25008h.7895v1.5h-.75c-.709 0-1.0252.00045-1.28664.0186-3.85722.26773-6.92702 3.33753-7.19476 7.19472-.01815.2615-.0186.5777-.0186 1.2867s.00045 1.0252.0186 1.2866c.1041 1.4997.63119 2.8791 1.46333 4.0219l.24435.3356-1.15548 2.8792 3.24521-1.0872.28513.1524c.93755.5009 1.99098.815 3.11222.8929.26144.0181.57764.0186 1.28664.0186h1.5c.709 0 1.0252-.0005 1.2866-.0186 3.8573-.2678 6.9271-3.3376 7.1948-7.1948.0181-.2614.0186-.5776.0186-1.2866s-.0005-1.0252-.0186-1.2867c-.0419-.6034-.1522-1.18693-.3231-1.74311l1.4339-.44049c.2042.6647.3357 1.3611.3856 2.0798.0222.32.0222.6919.0222 1.351v.079c0 .6591 0 1.0309-.0222 1.351-.3196 4.6038-3.9835 8.2677-8.5873 8.5873-.3201.0222-.6919.0222-1.351.0222h-1.579c-.6591 0-1.0309 0-1.35101-.0222-1.22118-.0848-2.3773-.4052-3.4224-.9165l-4.17844 1.3998c-.27724.0929-.58319.0162-.78383-.1965-.20063-.2127-.25936-.5226-.15046-.794l1.45485-3.6252c-.8545-1.2933-1.39318-2.815-1.50701-4.4549-.02221-.3201-.02221-.6919-.0222-1.351v-.079c-.00001-.6591-.00001-1.031.0222-1.351.31956-4.60381 3.98351-8.26777 8.58729-8.58732.32011-.02222.69191-.02221 1.35101-.0222z"/><path d="m22.5303 2.53039-6.5303 6.53033-2.5303-2.53033 1.0606-1.06066 1.4697 1.46967 5.4697-5.46967z"/></g></svg>