<?xml version="1.0" encoding="iso-8859-1"?>
<!-- Generator: Adobe Illustrator 19.0.0, SVG Export Plug-In . SVG Version: 6.00 Build 0)  -->
<svg version="1.1" id="Layer_1" xmlns="http://www.w3.org/2000/svg" xmlns:xlink="http://www.w3.org/1999/xlink" x="0px" y="0px"
	 viewBox="0 0 512 512" style="enable-background:new 0 0 512 512;" xml:space="preserve">
<g>
	<g>
		<path d="M128,69.818c-6.982,0-11.636,4.655-11.636,11.636v279.273c0,6.982,4.655,11.636,11.636,11.636s11.636-4.655,11.636-11.636
			V81.455C139.636,74.473,134.982,69.818,128,69.818z"/>
	</g>
</g>
<g>
	<g>
		<path d="M407.273,442.182H128c-6.982,0-11.636,4.655-11.636,11.636s4.655,11.636,11.636,11.636h279.273
			c6.982,0,11.636-4.655,11.636-11.636S414.255,442.182,407.273,442.182z"/>
	</g>
</g>
<g>
	<g>
		<path d="M337.455,186.182H221.091c-6.982,0-11.636,4.655-11.636,11.636s4.655,11.636,11.636,11.636h116.364
			c6.982,0,11.636-4.655,11.636-11.636S344.436,186.182,337.455,186.182z"/>
	</g>
</g>
<g>
	<g>
		<path d="M314.182,232.727h-69.818c-6.982,0-11.636,4.655-11.636,11.636S237.382,256,244.364,256h69.818
			c6.982,0,11.636-4.655,11.636-11.636S321.164,232.727,314.182,232.727z"/>
	</g>
</g>
<g>
	<g>
		<path d="M128,418.909h279.273c19.782,0,34.909-15.127,34.909-34.909V46.545c0-19.782-15.127-34.909-34.909-34.909h-11.636
			C395.636,4.655,390.982,0,384,0h-93.091c-6.982,0-11.636,4.655-11.636,11.636v93.091c0,3.491,2.327,8.145,5.818,10.473
			s8.145,2.327,11.636,0l40.727-20.945l41.891,20.945c3.491,2.327,8.145,1.164,11.636,0c2.327-2.327,4.655-6.982,4.655-10.473
			V69.818c0-6.982-4.655-11.636-11.636-11.636s-11.636,4.655-11.636,11.636v16.291l-30.255-15.127
			c-3.491-1.164-6.982-1.164-10.473,0l-29.091,15.127V23.273h69.818c0,6.982,4.655,11.636,11.636,11.636h23.273
			c6.982,0,11.636,4.655,11.636,11.636V384c0,6.982-4.655,11.636-11.636,11.636H128c-12.8,0-25.6,4.655-34.909,11.636V93.091
			c0-32.582,25.6-58.182,58.182-58.182h93.091c6.982,0,11.636-4.655,11.636-11.636s-4.655-11.636-11.636-11.636h-93.091
			c-45.382,0-81.455,36.073-81.455,81.455v360.727C69.818,486.4,95.418,512,128,512h302.545c6.982,0,11.636-4.655,11.636-11.636
			s-4.655-11.636-11.636-11.636H128c-19.782,0-34.909-15.127-34.909-34.909C93.091,434.036,108.218,418.909,128,418.909z"/>
	</g>
</g>
<g>
</g>
<g>
</g>
<g>
</g>
<g>
</g>
<g>
</g>
<g>
</g>
<g>
</g>
<g>
</g>
<g>
</g>
<g>
</g>
<g>
</g>
<g>
</g>
<g>
</g>
<g>
</g>
<g>
</g>
</svg>
