<svg viewBox="0 0 24 24" xmlns="http://www.w3.org/2000/svg"><g id="Layer_2" data-name="Layer 2"><path d="m12 22.75a.75067.75067 0 0 1 -.39941-.11523l-4.75245-2.99219a9.78979 9.78979 0 0 1 -4.59814-8.32858v-6.314a.75025.75025 0 0 1 .688-.74756 19.30389 19.30389 0 0 0 3.957-.74853 19.275 19.275 0 0 0 4.70605-2.13916.74949.74949 0 0 1 .79786 0 19.27171 19.27171 0 0 0 4.70556 2.13916 19.32884 19.32884 0 0 0 3.957.74853.74992.74992 0 0 1 .68853.74756v6.37207a9.77976 9.77976 0 0 1 -4.67285 8.375l-4.68315 2.89111a.7487.7487 0 0 1 -.394.11182zm-8.25-17.0708v5.6348a8.29842 8.29842 0 0 0 3.897 7.05909l4.35694 2.74316 4.28606-2.64555a8.2899 8.2899 0 0 0 3.96-7.09863v-5.69336a20.80605 20.80605 0 0 1 -3.57715-.73828 20.756 20.756 0 0 1 -4.67285-2.06104 20.76927 20.76927 0 0 1 -4.67334 2.061 20.829 20.829 0 0 1 -3.57666.73881z"/><path d="m11 14.25a.74754.74754 0 0 1 -.53027-.21973l-2-2a.74992.74992 0 0 1 1.06054-1.06054l1.46973 1.46972 3.46973-3.46972a.74992.74992 0 0 1 1.06054 1.06054l-4 4a.74754.74754 0 0 1 -.53027.21973z"/></g></svg>