<svg fill="none" height="24" viewBox="0 0 24 24" width="24" xmlns="http://www.w3.org/2000/svg"><g clip-rule="evenodd" fill="rgb(0,0,0)" fill-rule="evenodd"><path d="m1.25 11.5c0-5.69631 4.85029-10.25 10.75-10.25v1.5c-5.14473 0-9.25 3.95371-9.25 8.75 0 2.4343 1.05106 4.6425 2.76116 6.2352l.33041.3077-.70709 2.6275 2.85432-1.2778.29876.1241c1.13481.4711 2.39004.7333 3.71244.7333 5.1447 0 9.25-3.9537 9.25-8.75h1.5c0 5.6963-4.8503 10.25-10.75 10.25-1.4052 0-2.74954-.2575-3.98265-.7267l-3.71091 1.6612c-.26426.1183-.57301.074-.79325-.114-.22025-.1879-.31266-.4858-.23742-.7654l.88557-3.2908c-1.80063-1.8288-2.91134-4.2954-2.91134-7.0143z"/><path d="m18 2.75c-1.7949 0-3.25 1.45507-3.25 3.25s1.4551 3.25 3.25 3.25 3.25-1.45507 3.25-3.25-1.4551-3.25-3.25-3.25zm-4.75 3.25c0-2.62335 2.1266-4.75 4.75-4.75s4.75 2.12665 4.75 4.75-2.1266 4.75-4.75 4.75-4.75-2.12665-4.75-4.75zm6.7803-.96967-2 2-1.0606-1.06066 2-2z"/><path d="m7 11h2.00897v2h-2.00897zm3.9955 0h2.009v2h-2.009z"/></g></svg>