<svg viewBox="0 0 48 48" xmlns="http://www.w3.org/2000/svg"><g id="Paper_FAQ" data-name="Paper FAQ"><path d="m42 8.94c0-.56.27-.09-8.28-8.65-.43-.42 1.03-.29-23.72-.29a4 4 0 0 0 -4 4v40a4 4 0 0 0 4 4h28a4 4 0 0 0 4-4c0-39.16 0-34.72 0-35.06zm-3.41-.94h-3.59a1 1 0 0 1 -1-1v-3.59zm-.59 38h-28a2 2 0 0 1 -2-2v-40a2 2 0 0 1 2-2h22v5a3 3 0 0 0 3 3h5v34a2 2 0 0 1 -2 2z"/><path d="m20.94 22.35.5-1.35h3.12l.5 1.35a1 1 0 0 0 1.88-.7l-3-8a1 1 0 0 0 -1.88 0l-3 8a1 1 0 0 0 1.88.7zm2.06-5.5.81 2.15h-1.62z"/><path d="m34 22.43.27.28a1 1 0 0 0 1.42-1.42l-.26-.29c.72-1.21.57-2.08.57-4a4 4 0 0 0 -8 0v2a4 4 0 0 0 6 3.43zm-4-5.43a2 2 0 0 1 4 0c0 2.92 0 2.62-.29 2.29a1 1 0 0 0 -1.42 1.42l.22.22a2 2 0 0 1 -2.51-1.93z"/><path d="m17 15a1 1 0 0 0 0-2h-4a1 1 0 0 0 -1 1v8a1 1 0 0 0 2 0v-3h3a1 1 0 0 0 0-2h-3v-2z"/><path d="m36 26h-16a1 1 0 0 0 0 2h16a1 1 0 0 0 0-2z"/><path d="m36 30h-16a1 1 0 0 0 0 2h16a1 1 0 0 0 0-2z"/><path d="m16 26h-4a1 1 0 0 0 -1 1v4a1 1 0 0 0 1 1h4a1 1 0 0 0 1-1v-4a1 1 0 0 0 -1-1zm-1 4h-2v-2h2z"/><path d="m36 36h-16a1 1 0 0 0 0 2h16a1 1 0 0 0 0-2z"/><path d="m36 40h-16a1 1 0 0 0 0 2h16a1 1 0 0 0 0-2z"/><path d="m16 36h-4a1 1 0 0 0 -1 1v4a1 1 0 0 0 1 1h4a1 1 0 0 0 1-1v-4a1 1 0 0 0 -1-1zm-1 4h-2v-2h2z"/></g></svg>